<svg width="20" height="20" viewBox="0 0 20 20" fill="none" xmlns="http://www.w3.org/2000/svg">
<path d="M18.9061 16.0938H17.0311V14.2188C17.0311 14.1156 16.9467 14.0312 16.8436 14.0312H15.7186C15.6155 14.0312 15.5311 14.1156 15.5311 14.2188V16.0938H13.6561C13.553 16.0938 13.4686 16.1781 13.4686 16.2812V17.4062C13.4686 17.5094 13.553 17.5938 13.6561 17.5938H15.5311V19.4688C15.5311 19.5719 15.6155 19.6562 15.7186 19.6562H16.8436C16.9467 19.6562 17.0311 19.5719 17.0311 19.4688V17.5938H18.9061C19.0092 17.5938 19.0936 17.5094 19.0936 17.4062V16.2812C19.0936 16.1781 19.0092 16.0938 18.9061 16.0938ZM6.75376 9.68125C6.73266 9.47734 6.72094 9.27109 6.72094 9.0625C6.72094 8.68984 6.7561 8.32656 6.82173 7.97266C6.83813 7.88828 6.7936 7.80156 6.71626 7.76641C6.39751 7.62344 6.10454 7.42656 5.85141 7.17813C5.55315 6.88892 5.31844 6.54072 5.16227 6.15574C5.0061 5.77076 4.93189 5.35745 4.94438 4.94219C4.96548 4.18984 5.26782 3.475 5.79516 2.93594C6.37407 2.34297 7.15219 2.01953 7.97954 2.02891C8.72719 2.03594 9.44907 2.32422 9.99516 2.83516C10.1803 3.00859 10.3397 3.20078 10.4733 3.40703C10.5202 3.47969 10.6116 3.51016 10.6913 3.48203C11.1038 3.33906 11.5397 3.23828 11.9874 3.19141C12.1186 3.17734 12.1936 3.03672 12.135 2.91953C11.3733 1.4125 9.81704 0.371876 8.01704 0.343751C5.42016 0.303907 3.25454 2.43438 3.25454 5.03125C3.25454 6.50313 3.93188 7.81563 4.9936 8.67578C4.24829 9.02031 3.56157 9.4961 2.96626 10.0914C1.68188 11.3734 0.95532 13.0656 0.908445 14.8727C0.907819 14.8977 0.912207 14.9226 0.921349 14.9459C0.930492 14.9691 0.944204 14.9904 0.961677 15.0083C0.979151 15.0262 1.00003 15.0404 1.02309 15.0501C1.04615 15.0599 1.07092 15.0649 1.09595 15.0648H2.41079C2.51157 15.0648 2.59594 14.9852 2.59829 14.8844C2.64282 13.525 3.1936 12.2523 4.16157 11.2867C4.85063 10.5977 5.69438 10.1195 6.61548 9.8875C6.70454 9.86172 6.76548 9.775 6.75376 9.68125V9.68125ZM17.3124 9.0625C17.3124 6.49844 15.2522 4.41484 12.6975 4.375C10.1006 4.33516 7.93735 6.46563 7.93735 9.0625C7.93735 10.5344 8.61704 11.8469 9.67641 12.707C8.92338 13.0561 8.23787 13.5353 7.65141 14.1227C6.36704 15.4047 5.64048 17.0969 5.5936 18.9016C5.59298 18.9266 5.59736 18.9515 5.60651 18.9748C5.61565 18.998 5.62936 19.0193 5.64683 19.0372C5.66431 19.0551 5.68519 19.0693 5.70825 19.079C5.73131 19.0888 5.75608 19.0938 5.7811 19.0938H7.0936C7.19438 19.0938 7.27876 19.0141 7.2811 18.9133C7.32563 17.5539 7.87641 16.2812 8.84438 15.3156C9.85454 14.3055 11.1952 13.75 12.6249 13.75C15.2124 13.75 17.3124 11.6523 17.3124 9.0625ZM14.7459 11.1836C14.1788 11.7508 13.4264 12.0625 12.6249 12.0625C11.8233 12.0625 11.0709 11.7508 10.5038 11.1836C10.2207 10.902 9.99709 10.5665 9.84611 10.1969C9.69514 9.82736 9.6199 9.43123 9.62485 9.03203C9.63188 8.26328 9.93891 7.52031 10.4756 6.96953C11.0381 6.39297 11.7905 6.07188 12.5944 6.0625C13.3889 6.05547 14.16 6.36484 14.7272 6.92031C15.3084 7.48984 15.6272 8.25156 15.6272 9.0625C15.6249 9.86406 15.3131 10.6164 14.7459 11.1836V11.1836Z" fill="#002766"/>
</svg>
